<svg xmlns="http://www.w3.org/2000/svg" xmlns:xlink="http://www.w3.org/1999/xlink" viewBox="0 0 64 64"><defs><style>.cls-1{fill:url(#linear-gradient);}.cls-2{fill:url(#linear-gradient-2);}.cls-3{fill:url(#linear-gradient-3);}.cls-4{fill:url(#linear-gradient-4);}.cls-5{fill:url(#linear-gradient-5);}.cls-6{fill:url(#linear-gradient-6);}.cls-7{fill:url(#linear-gradient-7);}.cls-8{fill:url(#linear-gradient-8);}.cls-9{fill:url(#linear-gradient-9);}.cls-10{fill:url(#linear-gradient-10);}.cls-11{opacity:0.48;}</style><linearGradient id="linear-gradient" x1="9.13" y1="45.12" x2="55.34" y2="45.12" gradientUnits="userSpaceOnUse"><stop offset="0" stop-color="#fc9512"/><stop offset="0.21" stop-color="#fd7b11"/><stop offset="0.75" stop-color="#fe3e0e"/><stop offset="1" stop-color="#ff260d"/></linearGradient><linearGradient id="linear-gradient-2" x1="7.91" y1="46.08" x2="56.08" y2="46.08" gradientUnits="userSpaceOnUse"><stop offset="0" stop-color="#d7d8d2"/><stop offset="0.07" stop-color="#d0d1cb"/><stop offset="0.7" stop-color="#99988d"/><stop offset="1" stop-color="#848275"/></linearGradient><linearGradient id="linear-gradient-3" x1="18.16" y1="45.11" x2="23.48" y2="45.11" xlink:href="#linear-gradient-2"/><linearGradient id="linear-gradient-4" x1="40.53" y1="45.12" x2="45.85" y2="45.12" xlink:href="#linear-gradient-2"/><linearGradient id="linear-gradient-5" x1="19.6" y1="28.59" x2="44.4" y2="28.59" xlink:href="#linear-gradient-2"/><linearGradient id="linear-gradient-6" x1="17.66" y1="14.32" x2="46.34" y2="14.32" gradientUnits="userSpaceOnUse"><stop offset="0" stop-color="#ffe500"/><stop offset="1" stop-color="#fcb415"/></linearGradient><linearGradient id="linear-gradient-7" x1="16.09" y1="21.98" x2="47.91" y2="21.98" gradientUnits="userSpaceOnUse"><stop offset="0" stop-color="#fe7a18"/><stop offset="0.33" stop-color="#fe9215"/><stop offset="1" stop-color="#ffcc0f"/></linearGradient><linearGradient id="linear-gradient-8" x1="27.94" y1="8.88" x2="36.06" y2="8.88" xlink:href="#linear-gradient-7"/><linearGradient id="linear-gradient-9" x1="18.19" y1="15.83" x2="25.16" y2="15.83" xlink:href="#linear-gradient-7"/><linearGradient id="linear-gradient-10" x1="38.84" y1="15.83" x2="45.81" y2="15.83" xlink:href="#linear-gradient-7"/></defs><g id="Layer_64" data-name="Layer 64"><polygon class="cls-1" points="53.31 41.94 50.46 35.41 43.62 30 38.16 35.73 31.63 41.97 20.86 30 14.96 34.08 9.76 42.96 9.13 52.47 15.79 57.53 32.33 59.88 32.33 59.66 33.47 60.24 42.53 59.24 52.11 55.57 55.34 50.12 53.31 41.94"/><path class="cls-2" d="M55.1,46.75H55l-.27-1.38a1,1,0,0,0-.22-1.95H44.85a1,1,0,0,0-.92.62H42.45a1,1,0,0,0-.92-.61h-19a1,1,0,0,0-.83.48H20a1,1,0,0,0-.83-.47H9.53a1,1,0,0,0-.18,2l-.2,1.37a1,1,0,1,0-.25,2H19.16a1,1,0,0,0,1-1h1.32a1,1,0,0,0,1,1H41.53a1,1,0,0,0,1-1h1.32a1,1,0,0,0,1,1H55.1A1,1,0,0,0,55.1,46.75Z"/><path class="cls-3" d="M22.48,30.89a1,1,0,0,0-.68.27L20.86,30l-.91.41a1,1,0,0,0-1.79.59V58.55a1,1,0,1,0,2-.09l1.32.38v.4a1,1,0,0,0,2,0V31.89A1,1,0,0,0,22.48,30.89Z"/><path class="cls-4" d="M44.85,30a1,1,0,0,0-.93.67L43.25,30l-.84,1.44a1,1,0,0,0-1.88.45V59.24c.15,1.54,2.25,1.21,2-.37l1.32-.3a1,1,0,0,0,2,0V31A1,1,0,0,0,44.85,30Z"/><path d="M41.16,27.92a1,1,0,0,0-1.3.54c-.44,1.16,1,1.45,1.73,1.85L32,41.31l-9.58-11c.76-.39,2.16-.69,1.72-1.84-.77-1.48-2.6.19-3.62.57A24.13,24.13,0,0,0,7.76,50.37C7.75,58.66,23.35,61.14,32,61c12.07,0,24.24-3.29,24.24-10.63A24.18,24.18,0,0,0,41.16,27.92ZM9.76,50.37A22.14,22.14,0,0,1,20.61,31.26L31,43.2V59C20.28,58.82,9.76,55.87,9.76,50.37ZM33,59V43.2L43.41,31.27a22.16,22.16,0,0,1,10.83,19.1C54.24,55.86,43.72,58.82,33,59Z"/><path class="cls-5" d="M43.53,22.37a1,1,0,0,0-1.12.86,9.79,9.79,0,0,1-7.08,7.85,2.22,2.22,0,0,0-1.67-.75H30.34a2.22,2.22,0,0,0-1.67.75,9.79,9.79,0,0,1-7.08-7.85,1,1,0,0,0-2,.26A11.81,11.81,0,0,0,28.13,33a2.26,2.26,0,0,0,2.21,1.82h3.32A2.26,2.26,0,0,0,35.87,33a11.81,11.81,0,0,0,8.53-9.52A1,1,0,0,0,43.53,22.37Z"/><path class="cls-6" d="M45.81,16.83A14.22,14.22,0,0,0,35.29,6.68a1,1,0,0,0-1.2.74.41.41,0,0,0,0,.11H29.91a.41.41,0,0,0,0-.11,1,1,0,0,0-1.2-.74,14.17,14.17,0,0,0-9.81,8.15c-.55,1.15-2.6,7.52.2,6.68l.06.47,25.31-.86a1,1,0,0,0,.84.49C47.16,21.53,46,18,45.81,16.83Z"/><rect class="cls-7" x="16.09" y="19.61" width="31.82" height="4.75" rx="1"/><path class="cls-8" d="M32,3a4.06,4.06,0,0,0-4.06,4.06v6.71a1,1,0,0,0,1,1h6.12a1,1,0,0,0,1-1V7.06A4.06,4.06,0,0,0,32,3Z"/><path class="cls-9" d="M24.17,14.83H18.9a12.49,12.49,0,0,0-.71,2h6A1,1,0,0,0,24.17,14.83Z"/><path class="cls-10" d="M45.1,14.83H39.83a1,1,0,0,0,0,2h6A12.49,12.49,0,0,0,45.1,14.83Z"/><path class="cls-11" d="M56.09,47.79a.37.37,0,0,0,0-.18,24.12,24.12,0,0,0-13.7-19.14,10.81,10.81,0,0,0,1.87-4.11h2.67a1,1,0,0,0,1-1V20.61a1,1,0,0,0-1-1h-.64a14.32,14.32,0,0,0-.92-4.15v0A14.17,14.17,0,0,0,36,6.89a4,4,0,0,0-8.08,0A14.27,14.27,0,0,0,17.73,19.61h-.64a1,1,0,0,0-1,1v2.75a1,1,0,0,0,1,1h2.67a10.81,10.81,0,0,0,1.87,4.11c-.38.17-.75.36-1.11.56A24.11,24.11,0,0,0,7.93,47.61a.37.37,0,0,0,0,.18C5.43,58.47,22.25,61.05,32,61,45.33,60.77,58.07,57.71,56.09,47.79ZM10.31,45.42h7.85v1.33h-8.1C10.13,46.3,10.21,45.86,10.31,45.42Zm9.85-13.88.45-.28.87,1V58.05l-1.32-.27Zm8,1.47a2.26,2.26,0,0,0,2.21,1.82h3.32A2.26,2.26,0,0,0,35.87,33,12.7,12.7,0,0,0,41,30l.59.27-.76.87h0L32,41.31l-9.58-11L23,30A12.7,12.7,0,0,0,28.13,33Zm2-.43a.25.25,0,0,1,.25-.25h3.32a.25.25,0,0,1,0,.5H30.34A.25.25,0,0,1,30.09,32.58ZM31,43.2v.22H23.48V34.56Zm-7.52,2.22H31v1.33H23.48Zm9.52,0h7.53v1.33H33Zm7.53-2H33V43.2l7.53-8.64Zm-17,5.33H31V59a57.24,57.24,0,0,1-7.52-.6Zm9.52,0h7.53v9.64A57.26,57.26,0,0,1,33,59Zm9.53-16.48.88-1,.44.28V57.77l-1.32.28Zm3.32,13.15h7.84c.1.44.18.88.25,1.33H45.85Zm7.28-2H45.85V33A22.16,22.16,0,0,1,53.13,43.42ZM29.94,7.06a2.06,2.06,0,0,1,4.12,0v5.71H29.94Zm-9.66,9.77h3.89a1,1,0,0,0,0-2H21.12A12.17,12.17,0,0,1,27.94,9v4.78a1,1,0,0,0,1,1h6.12a1,1,0,0,0,1-1V9a12.17,12.17,0,0,1,6.82,5.84H39.83a1,1,0,0,0,0,2h3.89a12.8,12.8,0,0,1,.55,2.78H19.73A12.8,12.8,0,0,1,20.28,16.83Zm-2.19,4.78H45.91v.75H18.09Zm24.09,2.75a10,10,0,0,1-6.85,6.72,2.22,2.22,0,0,0-1.67-.75H30.34a2.22,2.22,0,0,0-1.67.75,10,10,0,0,1-6.85-6.72ZM18.16,33V43.42H10.87A22.15,22.15,0,0,1,18.16,33ZM9.76,50.37q0-.81.06-1.62h8.34v8.51C13.2,55.82,9.76,53.51,9.76,50.37Zm36.09,6.89V48.75h8.33C54.9,53.15,51.64,55.51,45.85,57.26Z"/></g></svg>